<svg xmlns="http://www.w3.org/2000/svg" xmlns:xlink="http://www.w3.org/1999/xlink" version="1.1" id="Ebene_1" x="0px" y="0px" viewBox="0 0 100 100" enable-background="new 0 0 100 100" xml:space="preserve" height="100px" width="100px">
<path d="M77,38.5c0-0.1,0-0.1,0-0.2V18.2c0-4.7-3.8-8.5-8.5-8.5c-1.7,0-3.4,0.5-4.8,1.4c-1-3.5-4.3-6.1-8.1-6.1  c-3.9,0-7.2,2.7-8.2,6.3c-1.3-0.9-3-1.4-4.7-1.4c-3.9,0-7.2,2.7-8.2,6.3c-1.3-0.9-3-1.4-4.7-1.4c-4.7,0-8.5,3.8-8.5,8.5v20.1  c0,0.3,0,0.5,0,0.8v0.7c0,16.9,2.9,24.2,5,29.6c1.2,3.1,2.1,5.2,2.1,8.4c0,2.7,1.4,6.5,8.4,9.4C40.7,93.9,45.9,95,50,95  c7.3,0,21.6-3.7,21.6-12.2c0-3.1,0.9-5.3,2.1-8.4c2.1-5.3,5-12.6,5-29.6C78.7,42.9,78,40.6,77,38.5z M68.5,13.8c2.4,0,4.4,2,4.4,4.4  v13.6c-0.4-0.5-0.7-0.8-0.8-1c-1.5-2.2-4.1-3.6-6.8-3.6h-1.2v-9C64.1,15.8,66.1,13.8,68.5,13.8z M51.2,13.6c0-2.4,2-4.4,4.4-4.4  c2.4,0,4.4,2,4.4,4.4v4.6v9h-8.8v-8.7L51.2,13.6L51.2,13.6z M38.4,18.5c0-2.4,2-4.4,4.4-4.4s4.4,2,4.4,4.4v8.7H46l0,0  c-0.5,0-1.1,0.2-1.4,0.6c-0.4,0.4-0.6,0.9-0.6,1.4c0,4.7,1,8.2,3,10.7c-0.6,1.8-2.2,3-4.2,3c-2.4,0-4.4-2-4.4-4.4V23.4L38.4,18.5  L38.4,18.5z M29.9,19c2.4,0,4.4,2,4.4,4.4v15.2v4.9c0,2.4-2,4.4-4.4,4.4c-2.2,0-4.1-1.7-4.3-3.8v-0.5c0-0.1,0-0.3,0-0.4V23.4  C25.5,21,27.4,19,29.9,19z M69.9,73c-1.3,3.2-2.4,6-2.4,9.9c0,0.9-0.6,3.4-5.9,5.7c-3.5,1.5-8,2.4-11.6,2.4s-8.1-1-11.6-2.4  c-5.3-2.3-5.9-4.7-5.9-5.7c0-3.9-1.1-6.6-2.4-9.9c-1.7-4.4-4-10.2-4.6-22.3c1.3,0.7,2.7,1.1,4.2,1.1c3.9,0,7.2-2.7,8.2-6.3  c1.3,0.9,3,1.4,4.7,1.4c3.2,0,6-1.8,7.5-4.5c2.3,1.2,5.2,1.9,9.3,2v3.7c-9.2,1.7-13,14.4-13.1,15c-0.3,1.1,0.3,2.2,1.4,2.5  c1.1,0.3,2.2-0.3,2.5-1.4c0,0,1-3.3,2.9-6.4c2.4-3.9,5.2-5.8,8.3-5.8c1.1,0,2.1-0.9,2.1-2.1v-7.6c0-0.5-0.2-1.1-0.6-1.4  c-0.4-0.3-0.9-0.6-1.4-0.6l0,0c-5.5,0.1-8.9-0.8-10.8-2.5c-0.1-0.1-0.2-0.2-0.3-0.3c-1.3-1.4-2.1-3.5-2.3-6.4h1c0.1,0,0.1,0,0.1,0  c0.1,0,0.1,0,0.1,0h16c1.4,0,2.7,0.7,3.4,1.8c0.1,0.1,0.1,0.1,0.1,0.2c1.6,1.9,5.7,7.6,5.7,11.6C74.6,61,71.9,67.9,69.9,73z"/>
</svg>